<svg width="667" height="115" viewBox="0 0 667 115" fill="none" xmlns="http://www.w3.org/2000/svg">
<path d="M0.898438 114H18.6875V74.6953H38.7969C60.7344 74.6953 78.6641 58.2422 78.6641 38.0625C78.6641 17.4609 60.7344 0.65625 38.7969 0.65625H0.898438V114ZM38.7969 57.1172L18.6875 57.0469V18.3047H38.7969C50.9609 18.3047 60.875 27.0938 60.875 37.9219C60.875 48.5391 50.9609 57.1875 38.7969 57.1172ZM242.133 114H247.217L233.152 83.4775H232.874L218.81 114H223.894L225.935 109.454H240.092L242.133 114ZM227.753 105.428L233.022 93.7383L238.273 105.428H227.753ZM421.111 114.482C425.564 114.482 428.849 112.534 431.428 109.992L428.719 106.207C426.659 108.248 424.024 109.77 420.963 109.77C415.601 109.77 410.35 105.112 410.35 99.082C410.35 93.0889 415.526 88.3389 420.944 88.3389C423.876 88.3389 426.604 89.7305 428.7 91.8271L431.428 88.1348C428.496 85.2773 424.915 83.626 421.037 83.5703C412.632 83.5703 405.6 90.6396 405.6 99.0635C405.6 107.506 412.632 114.482 421.111 114.482ZM564.984 114H570.068L556.004 83.4775H555.726L541.661 114H546.745L548.786 109.454H562.943L564.984 114ZM550.604 105.428L555.874 93.7383L561.125 105.428H550.604Z" fill="#C01F3E"/>
<path d="M102.657 88.71V84.0898H84.8447V114H102.657V109.324H89.5391V101.049H100.857V96.373H89.5391V88.71H102.657ZM121.564 114.482C130.081 114.482 137.058 107.543 137.058 99.082C137.058 90.5469 130.081 83.5703 121.583 83.5703C113.066 83.5703 106.127 90.5469 106.127 99.082C106.127 107.543 113.066 114.482 121.564 114.482ZM121.564 109.732C115.664 109.732 110.858 104.927 110.858 99.0449C110.858 93.126 115.664 88.3018 121.564 88.3018C127.465 88.3018 132.308 93.126 132.308 99.0449C132.308 104.927 127.465 109.732 121.564 109.732ZM141.362 114H146.057V103.628H151.363C157.152 103.628 161.884 99.2861 161.884 93.9609C161.884 88.5244 157.152 84.0898 151.363 84.0898H141.362V114ZM151.363 98.9893L146.057 98.9707V88.7471H151.363C154.573 88.7471 157.189 91.0664 157.189 93.9238C157.189 96.7256 154.573 99.0078 151.363 98.9893ZM170.326 109.324V84.0898H165.632V114H183.667V109.324H170.326ZM205.228 88.71V84.0898H187.415V114H205.228V109.324H192.109V101.049H203.428V96.373H192.109V88.71H205.228ZM278.815 97.6719H264.658V101.977H273.917V102.069C273.917 106.634 270.058 109.77 264.918 109.77C258.535 109.77 253.878 104.945 253.878 99.082C253.878 92.8848 259.036 88.3203 264.491 88.3203C267.33 88.3203 270.484 89.7676 272.822 92.0684L275.438 88.1719C272.618 85.4258 268.313 83.6074 264.547 83.5889C256.049 83.5889 249.109 90.584 249.109 99.082C249.109 107.562 256.012 114.501 264.714 114.501C272.488 114.501 278.945 108.897 278.945 100.01C278.945 99.1748 278.89 98.3584 278.815 97.6719ZM301.396 114H306.48L292.416 83.4775H292.138L278.073 114H283.157L285.198 109.454H299.355L301.396 114ZM287.017 105.428L292.286 93.7383L297.537 105.428H287.017ZM309.802 114H314.496V84.0898H309.802V114ZM339.601 84.0156V103.517L320.508 83.5703H320.267V114.037H324.961V94.5361L344.091 114.52H344.313V84.0156H339.601ZM358.693 114.501C364.761 114.501 369.362 111.087 369.362 105.78C369.362 101.067 365.688 98.7852 360.957 96.707C357.32 95.1484 354.556 94.3135 354.556 91.9756C354.556 89.8604 356.745 88.1533 359.491 88.1533C361.662 88.1533 363.722 89.2852 364.649 91.3076L368.138 88.8955C366.913 85.6113 363.722 83.5518 359.454 83.5518C354.073 83.5518 349.824 86.9658 349.824 91.8643C349.824 96.5586 353.721 98.377 357.228 99.9355C360.716 101.438 364.649 103.108 364.649 105.873C364.649 108.155 362.107 109.77 358.749 109.77C355.873 109.77 353.387 108.434 352.051 106.096L348.34 108.749C350.047 112.2 353.776 114.501 358.693 114.501ZM392.147 84.0898H371.403V88.7471H379.419V114H384.132V88.7471H392.147V84.0898ZM442.635 114H447.292V101.216L457.219 84.0898H451.931L444.954 96.002L437.996 84.0898H432.708L442.635 101.216V114ZM473.992 97.1523C475.105 97.1523 477.351 95 477.351 91.7715C477.351 87.8008 473.862 84.0898 468.704 84.0898H460.54V114H471.729C477.666 114 481.136 109.473 481.136 104.89C481.136 100.232 477.351 97.1523 473.992 97.1523ZM468.982 88.6543C471.098 88.6543 472.953 90.25 472.953 92.3838C472.953 94.5176 471.246 96.1133 468.927 96.0947L465.216 96.1133V88.6543H468.982ZM471.302 109.417H465.216V100.251L471.228 100.232C474.623 100.232 476.553 102.311 476.553 104.574C476.553 107.469 473.992 109.417 471.302 109.417ZM502.696 88.71V84.0898H484.884V114H502.696V109.324H489.578V101.049H500.896V96.373H489.578V88.71H502.696ZM529.805 114L521.103 102.032C524.535 100.919 527.021 97.5605 527.021 93.7012C527.021 88.376 522.457 84.0898 516.891 84.0898H507.595L507.613 114H512.308V102.422H515.981L524.034 114H529.805ZM512.289 98.5254V88.7471H517.002C519.785 88.7471 522.179 90.8066 522.179 93.5898C522.179 96.2617 519.822 98.5439 517.002 98.5254H512.289ZM586.842 97.1523C587.955 97.1523 590.2 95 590.2 91.7715C590.2 87.8008 586.712 84.0898 581.554 84.0898H573.39V114H584.578C590.516 114 593.985 109.473 593.985 104.89C593.985 100.232 590.2 97.1523 586.842 97.1523ZM581.832 88.6543C583.947 88.6543 585.803 90.25 585.803 92.3838C585.803 94.5176 584.096 96.1133 581.776 96.0947L578.065 96.1133V88.6543H581.832ZM584.151 109.417H578.065V100.251L584.077 100.232C587.473 100.232 589.402 102.311 589.402 104.574C589.402 107.469 586.842 109.417 584.151 109.417ZM608.755 114.557C615.119 114.557 620.073 109.528 620.073 102.663V84.0898H615.342V102.645C615.342 106.782 612.392 109.807 608.736 109.807C605.081 109.807 602.168 106.782 602.168 102.645V84.0898H597.455V102.663C597.455 109.528 602.391 114.557 608.755 114.557ZM634.156 114.501C640.224 114.501 644.825 111.087 644.825 105.78C644.825 101.067 641.151 98.7852 636.42 96.707C632.783 95.1484 630.019 94.3135 630.019 91.9756C630.019 89.8604 632.208 88.1533 634.954 88.1533C637.125 88.1533 639.185 89.2852 640.112 91.3076L643.601 88.8955C642.376 85.6113 639.185 83.5518 634.917 83.5518C629.536 83.5518 625.287 86.9658 625.287 91.8643C625.287 96.5586 629.184 98.377 632.69 99.9355C636.179 101.438 640.112 103.108 640.112 105.873C640.112 108.155 637.57 109.77 634.212 109.77C631.336 109.77 628.85 108.434 627.514 106.096L623.803 108.749C625.51 112.2 629.239 114.501 634.156 114.501ZM666.683 88.71V84.0898H648.87V114H666.683V109.324H653.564V101.049H664.883V96.373H653.564V88.71H666.683Z" fill="#C4C4C4"/>
</svg>
